<svg xmlns="http://www.w3.org/2000/svg" xmlns:xlink="http://www.w3.org/1999/xlink" width="500" zoomAndPan="magnify" viewBox="0 0 375 374.999991" height="500" preserveAspectRatio="xMidYMid meet" version="1.0"><defs><g/><clipPath id="ee1ff48a7e"><rect x="0" width="261" y="0" height="300"/></clipPath></defs><rect x="-37.5" width="450" fill="#ffffff" y="-37.499999" height="449.999989" fill-opacity="1"/><rect x="-37.5" width="450" fill="#000000" y="-37.499999" height="449.999989" fill-opacity="1"/><g transform="matrix(1, 0, 0, 1, 57, 37)"><g clip-path="url(#ee1ff48a7e)"><g fill="#ffb000" fill-opacity="1"><g transform="translate(27.766832, 112.6521)"><g><path d="M 14.421875 -40.824219 C 14.421875 -41.601562 15.085938 -42.269531 15.863281 -42.269531 L 38.71875 -42.269531 C 39.496094 -42.269531 40.160156 -41.601562 40.160156 -40.824219 L 40.160156 -11.980469 C 40.160156 -11.203125 39.496094 -10.539062 38.71875 -10.539062 L 15.863281 -10.539062 C 15.085938 -10.539062 14.421875 -11.203125 14.421875 -11.980469 Z M 1.554688 -11.980469 C 1.554688 -11.203125 2.21875 -10.539062 2.996094 -10.539062 L 6.546875 -10.539062 C 7.320312 -10.539062 7.988281 -9.875 7.988281 -9.097656 L 7.988281 -6.765625 C 7.988281 -5.992188 8.652344 -5.324219 9.429688 -5.324219 L 12.980469 -5.324219 C 13.757812 -5.324219 14.421875 -4.660156 14.421875 -3.882812 L 14.421875 -1.441406 C 14.421875 -0.664062 15.085938 0 15.863281 0 L 38.71875 0 C 39.496094 0 40.160156 -0.664062 40.160156 -1.441406 L 40.160156 -3.882812 C 40.160156 -4.660156 40.824219 -5.324219 41.601562 -5.324219 L 45.152344 -5.324219 C 45.929688 -5.324219 46.59375 -5.992188 46.59375 -6.765625 L 46.59375 -9.097656 C 46.59375 -9.875 47.261719 -10.539062 48.035156 -10.539062 L 51.585938 -10.539062 C 52.363281 -10.539062 53.03125 -11.203125 53.03125 -11.980469 L 53.03125 -40.824219 C 53.03125 -41.601562 52.363281 -42.269531 51.585938 -42.269531 L 48.035156 -42.269531 C 47.261719 -42.269531 46.59375 -42.933594 46.59375 -43.710938 L 46.59375 -46.152344 C 46.59375 -46.925781 45.929688 -47.59375 45.152344 -47.59375 L 41.601562 -47.59375 C 40.824219 -47.59375 40.160156 -48.257812 40.160156 -49.035156 L 40.160156 -51.367188 C 40.160156 -52.140625 39.496094 -52.808594 38.71875 -52.808594 L 15.863281 -52.808594 C 15.085938 -52.808594 14.421875 -53.472656 14.421875 -54.25 L 14.421875 -72.554688 C 14.421875 -73.332031 13.757812 -73.996094 12.980469 -73.996094 L 2.996094 -73.996094 C 2.21875 -73.996094 1.554688 -73.332031 1.554688 -72.554688 Z M 1.554688 -11.980469 "/></g></g></g><g fill="#ffb000" fill-opacity="1"><g transform="translate(82.343069, 112.6521)"><g><path d="M 1.554688 -11.980469 C 1.554688 -11.203125 2.21875 -10.539062 2.996094 -10.539062 L 6.546875 -10.539062 C 7.320312 -10.539062 7.988281 -9.875 7.988281 -9.097656 L 7.988281 -6.765625 C 7.988281 -5.992188 8.652344 -5.324219 9.429688 -5.324219 L 12.980469 -5.324219 C 13.757812 -5.324219 14.421875 -4.660156 14.421875 -3.882812 L 14.421875 -1.441406 C 14.421875 -0.664062 15.085938 0 15.863281 0 L 38.71875 0 C 39.496094 0 40.160156 0.664062 40.160156 1.441406 L 40.160156 19.636719 C 40.160156 20.414062 40.824219 21.078125 41.601562 21.078125 L 51.585938 21.078125 C 52.363281 21.078125 53.03125 20.414062 53.03125 19.636719 L 53.03125 -51.367188 C 53.03125 -52.140625 52.363281 -52.808594 51.585938 -52.808594 L 41.601562 -52.808594 C 40.824219 -52.808594 40.160156 -52.140625 40.160156 -51.367188 L 40.160156 -11.980469 C 40.160156 -11.203125 39.496094 -10.539062 38.71875 -10.539062 L 15.863281 -10.539062 C 15.085938 -10.539062 14.421875 -11.203125 14.421875 -11.980469 L 14.421875 -51.367188 C 14.421875 -52.140625 13.757812 -52.808594 12.980469 -52.808594 L 2.996094 -52.808594 C 2.21875 -52.808594 1.554688 -52.140625 1.554688 -51.367188 Z M 1.554688 -11.980469 "/></g></g></g><g fill="#ffb000" fill-opacity="1"><g transform="translate(136.919305, 112.6521)"><g><path d="M 15.863281 0 L 38.71875 0 C 39.496094 0 40.160156 -0.664062 40.160156 -1.441406 L 40.160156 -9.097656 C 40.160156 -9.875 39.496094 -10.539062 38.71875 -10.539062 L 15.863281 -10.539062 C 15.085938 -10.539062 14.421875 -11.203125 14.421875 -11.980469 L 14.421875 -40.824219 C 14.421875 -41.601562 15.085938 -42.269531 15.863281 -42.269531 L 38.71875 -42.269531 C 39.496094 -42.269531 40.160156 -42.933594 40.160156 -43.710938 L 40.160156 -51.367188 C 40.160156 -52.140625 39.496094 -52.808594 38.71875 -52.808594 L 15.863281 -52.808594 C 15.085938 -52.808594 14.421875 -53.472656 14.421875 -54.25 L 14.421875 -72.554688 C 14.421875 -73.332031 13.757812 -73.996094 12.980469 -73.996094 L 2.996094 -73.996094 C 2.21875 -73.996094 1.554688 -73.332031 1.554688 -72.554688 L 1.554688 -11.980469 C 1.554688 -11.203125 2.21875 -10.539062 2.996094 -10.539062 L 6.546875 -10.539062 C 7.320312 -10.539062 7.988281 -9.875 7.988281 -9.097656 L 7.988281 -6.65625 C 7.988281 -5.878906 8.652344 -5.214844 9.429688 -5.214844 L 12.980469 -5.214844 C 13.757812 -5.214844 14.421875 -4.546875 14.421875 -3.773438 L 14.421875 -1.441406 C 14.421875 -0.664062 15.085938 0 15.863281 0 Z M 15.863281 0 "/></g></g></g><g fill="#ffb000" fill-opacity="1"><g transform="translate(178.627979, 112.6521)"><g><path d="M 51.585938 -21.078125 C 52.363281 -21.078125 53.03125 -21.746094 53.03125 -22.519531 L 53.03125 -30.175781 C 53.03125 -30.953125 52.363281 -31.617188 51.585938 -31.617188 L 15.863281 -31.617188 C 15.085938 -31.617188 14.421875 -32.285156 14.421875 -33.058594 L 14.421875 -40.824219 C 14.421875 -41.601562 15.085938 -42.269531 15.863281 -42.269531 L 51.585938 -42.269531 C 52.363281 -42.269531 53.03125 -42.933594 53.03125 -43.710938 L 53.03125 -51.367188 C 53.03125 -52.140625 52.363281 -52.808594 51.585938 -52.808594 L 15.863281 -52.808594 C 15.085938 -52.808594 14.421875 -52.140625 14.421875 -51.367188 L 14.421875 -49.035156 C 14.421875 -48.257812 13.757812 -47.59375 12.980469 -47.59375 L 9.429688 -47.59375 C 8.652344 -47.59375 7.988281 -46.925781 7.988281 -46.152344 L 7.988281 -43.710938 C 7.988281 -42.933594 7.320312 -42.269531 6.546875 -42.269531 L 2.996094 -42.269531 C 2.21875 -42.269531 1.554688 -41.601562 1.554688 -40.824219 L 1.554688 -11.980469 C 1.554688 -11.203125 2.21875 -10.539062 2.996094 -10.539062 L 6.546875 -10.539062 C 7.320312 -10.539062 7.988281 -9.875 7.988281 -9.097656 L 7.988281 -6.765625 C 7.988281 -5.992188 8.652344 -5.324219 9.429688 -5.324219 L 12.980469 -5.324219 C 13.757812 -5.324219 14.421875 -4.660156 14.421875 -3.882812 L 14.421875 -1.441406 C 14.421875 -0.664062 15.085938 0 15.863281 0 L 51.585938 0 C 52.363281 0 53.03125 -0.664062 53.03125 -1.441406 L 53.03125 -9.097656 C 53.03125 -9.875 52.363281 -10.539062 51.585938 -10.539062 L 15.863281 -10.539062 C 15.085938 -10.539062 14.421875 -11.203125 14.421875 -11.980469 L 14.421875 -19.636719 C 14.421875 -20.414062 15.085938 -21.078125 15.863281 -21.078125 Z M 51.585938 -21.078125 "/></g></g></g><g fill="#ffb000" fill-opacity="1"><g transform="translate(0.474068, 267.484328)"><g><path d="M 38.71875 0 C 39.496094 0 40.160156 -0.664062 40.160156 -1.441406 L 40.160156 -3.882812 C 40.160156 -4.660156 40.824219 -5.324219 41.601562 -5.324219 L 45.152344 -5.324219 C 45.929688 -5.324219 46.59375 -5.992188 46.59375 -6.765625 L 46.59375 -9.097656 C 46.59375 -9.875 47.261719 -10.539062 48.035156 -10.539062 L 51.585938 -10.539062 C 52.363281 -10.539062 53.03125 -11.203125 53.03125 -11.980469 L 53.03125 -40.824219 C 53.03125 -41.601562 52.363281 -42.269531 51.585938 -42.269531 L 48.035156 -42.269531 C 47.261719 -42.269531 46.59375 -42.933594 46.59375 -43.710938 L 46.59375 -46.152344 C 46.59375 -46.925781 45.929688 -47.59375 45.152344 -47.59375 L 41.601562 -47.59375 C 40.824219 -47.59375 40.160156 -48.257812 40.160156 -49.035156 L 40.160156 -51.367188 C 40.160156 -52.140625 39.496094 -52.808594 38.71875 -52.808594 L 15.863281 -52.808594 C 15.085938 -52.808594 14.421875 -53.472656 14.421875 -54.25 L 14.421875 -72.554688 C 14.421875 -73.332031 13.757812 -73.996094 12.980469 -73.996094 L 2.996094 -73.996094 C 2.21875 -73.996094 1.554688 -73.332031 1.554688 -72.554688 L 1.554688 -54.25 C 1.554688 -53.472656 2.21875 -52.808594 2.996094 -52.808594 L 6.546875 -52.808594 C 7.320312 -52.808594 7.988281 -52.140625 7.988281 -51.367188 L 7.988281 -49.035156 C 7.988281 -48.257812 8.652344 -47.59375 9.429688 -47.59375 L 12.980469 -47.59375 C 13.757812 -47.59375 14.421875 -46.925781 14.421875 -46.152344 L 14.421875 -43.710938 C 14.421875 -42.933594 15.085938 -42.269531 15.863281 -42.269531 L 38.71875 -42.269531 C 39.496094 -42.269531 40.160156 -41.601562 40.160156 -40.824219 L 40.160156 -11.980469 C 40.160156 -11.203125 39.496094 -10.539062 38.71875 -10.539062 L 2.996094 -10.539062 C 2.21875 -10.539062 1.554688 -9.875 1.554688 -9.097656 L 1.554688 -1.441406 C 1.554688 -0.664062 2.21875 0 2.996094 0 Z M 38.71875 0 "/></g></g></g><g fill="#ffb000" fill-opacity="1"><g transform="translate(55.050305, 267.484328)"><g><path d="M 14.421875 -40.824219 C 14.421875 -41.601562 15.085938 -42.269531 15.863281 -42.269531 L 38.71875 -42.269531 C 39.496094 -42.269531 40.160156 -41.601562 40.160156 -40.824219 L 40.160156 -11.980469 C 40.160156 -11.203125 39.496094 -10.539062 38.71875 -10.539062 L 15.863281 -10.539062 C 15.085938 -10.539062 14.421875 -11.203125 14.421875 -11.980469 Z M 1.554688 19.746094 C 1.554688 20.523438 2.21875 21.191406 2.996094 21.191406 L 12.980469 21.191406 C 13.757812 21.191406 14.421875 20.523438 14.421875 19.746094 L 14.421875 1.441406 C 14.421875 0.664062 15.085938 0 15.863281 0 L 38.71875 0 C 39.496094 0 40.160156 -0.664062 40.160156 -1.441406 L 40.160156 -3.882812 C 40.160156 -4.660156 40.824219 -5.324219 41.601562 -5.324219 L 45.152344 -5.324219 C 45.929688 -5.324219 46.59375 -5.992188 46.59375 -6.765625 L 46.59375 -9.097656 C 46.59375 -9.875 47.261719 -10.539062 48.035156 -10.539062 L 51.585938 -10.539062 C 52.363281 -10.539062 53.03125 -11.203125 53.03125 -11.980469 L 53.03125 -40.824219 C 53.03125 -41.601562 52.363281 -42.269531 51.585938 -42.269531 L 48.035156 -42.269531 C 47.261719 -42.269531 46.59375 -42.933594 46.59375 -43.710938 L 46.59375 -46.152344 C 46.59375 -46.925781 45.929688 -47.59375 45.152344 -47.59375 L 41.601562 -47.59375 C 40.824219 -47.59375 40.160156 -48.257812 40.160156 -49.035156 L 40.160156 -51.367188 C 40.160156 -52.140625 39.496094 -52.808594 38.71875 -52.808594 L 15.863281 -52.808594 C 15.085938 -52.808594 14.421875 -52.140625 14.421875 -51.367188 L 14.421875 -49.035156 C 14.421875 -48.257812 13.757812 -47.59375 12.980469 -47.59375 L 9.429688 -47.59375 C 8.652344 -47.59375 7.988281 -46.925781 7.988281 -46.152344 L 7.988281 -43.710938 C 7.988281 -42.933594 7.320312 -42.269531 6.546875 -42.269531 L 2.996094 -42.269531 C 2.21875 -42.269531 1.554688 -41.601562 1.554688 -40.824219 Z M 1.554688 19.746094 "/></g></g></g><g fill="#ffb000" fill-opacity="1"><g transform="translate(109.626541, 267.484328)"><g><path d="M 25.847656 0 C 26.625 0 27.292969 -0.664062 27.292969 -1.441406 L 27.292969 -3.882812 C 27.292969 -4.660156 27.957031 -5.324219 28.734375 -5.324219 L 32.285156 -5.324219 C 33.058594 -5.324219 33.726562 -5.992188 33.726562 -6.765625 L 33.726562 -9.097656 C 33.726562 -9.875 34.390625 -10.539062 35.167969 -10.539062 L 38.71875 -10.539062 C 39.496094 -10.539062 40.160156 -11.203125 40.160156 -11.980469 L 40.160156 -51.367188 C 40.160156 -52.140625 39.496094 -52.808594 38.71875 -52.808594 L 28.734375 -52.808594 C 27.957031 -52.808594 27.292969 -52.140625 27.292969 -51.367188 L 27.292969 -11.980469 C 27.292969 -11.203125 26.625 -10.539062 25.847656 -10.539062 L 2.996094 -10.539062 C 2.21875 -10.539062 1.554688 -9.875 1.554688 -9.097656 L 1.554688 -1.441406 C 1.554688 -0.664062 2.21875 0 2.996094 0 Z M 25.847656 0 "/></g></g></g><g fill="#ffb000" fill-opacity="1"><g transform="translate(151.335215, 267.484328)"><g><path d="M 15.863281 0 L 51.585938 0 C 52.363281 0 53.03125 -0.664062 53.03125 -1.441406 L 53.03125 -9.097656 C 53.03125 -9.875 52.363281 -10.539062 51.585938 -10.539062 L 15.863281 -10.539062 C 15.085938 -10.539062 14.421875 -11.203125 14.421875 -11.980469 L 14.421875 -40.824219 C 14.421875 -41.601562 15.085938 -42.269531 15.863281 -42.269531 L 51.585938 -42.269531 C 52.363281 -42.269531 53.03125 -42.933594 53.03125 -43.710938 L 53.03125 -51.367188 C 53.03125 -52.140625 52.363281 -52.808594 51.585938 -52.808594 L 15.863281 -52.808594 C 15.085938 -52.808594 14.421875 -52.140625 14.421875 -51.367188 L 14.421875 -49.035156 C 14.421875 -48.257812 13.757812 -47.59375 12.980469 -47.59375 L 9.429688 -47.59375 C 8.652344 -47.59375 7.988281 -46.925781 7.988281 -46.152344 L 7.988281 -43.710938 C 7.988281 -42.933594 7.320312 -42.269531 6.546875 -42.269531 L 2.996094 -42.269531 C 2.21875 -42.269531 1.554688 -41.601562 1.554688 -40.824219 L 1.554688 -11.980469 C 1.554688 -11.203125 2.21875 -10.539062 2.996094 -10.539062 L 6.546875 -10.539062 C 7.320312 -10.539062 7.988281 -9.875 7.988281 -9.097656 L 7.988281 -6.765625 C 7.988281 -5.992188 8.652344 -5.324219 9.429688 -5.324219 L 12.980469 -5.324219 C 13.757812 -5.324219 14.421875 -4.660156 14.421875 -3.882812 L 14.421875 -1.441406 C 14.421875 -0.664062 15.085938 0 15.863281 0 Z M 15.863281 0 "/></g></g></g><g fill="#ffb000" fill-opacity="1"><g transform="translate(205.911451, 267.484328)"><g><path d="M 51.585938 -21.078125 C 52.363281 -21.078125 53.03125 -21.746094 53.03125 -22.519531 L 53.03125 -30.175781 C 53.03125 -30.953125 52.363281 -31.617188 51.585938 -31.617188 L 15.863281 -31.617188 C 15.085938 -31.617188 14.421875 -32.285156 14.421875 -33.058594 L 14.421875 -40.824219 C 14.421875 -41.601562 15.085938 -42.269531 15.863281 -42.269531 L 51.585938 -42.269531 C 52.363281 -42.269531 53.03125 -42.933594 53.03125 -43.710938 L 53.03125 -51.367188 C 53.03125 -52.140625 52.363281 -52.808594 51.585938 -52.808594 L 15.863281 -52.808594 C 15.085938 -52.808594 14.421875 -52.140625 14.421875 -51.367188 L 14.421875 -49.035156 C 14.421875 -48.257812 13.757812 -47.59375 12.980469 -47.59375 L 9.429688 -47.59375 C 8.652344 -47.59375 7.988281 -46.925781 7.988281 -46.152344 L 7.988281 -43.710938 C 7.988281 -42.933594 7.320312 -42.269531 6.546875 -42.269531 L 2.996094 -42.269531 C 2.21875 -42.269531 1.554688 -41.601562 1.554688 -40.824219 L 1.554688 -11.980469 C 1.554688 -11.203125 2.21875 -10.539062 2.996094 -10.539062 L 6.546875 -10.539062 C 7.320312 -10.539062 7.988281 -9.875 7.988281 -9.097656 L 7.988281 -6.765625 C 7.988281 -5.992188 8.652344 -5.324219 9.429688 -5.324219 L 12.980469 -5.324219 C 13.757812 -5.324219 14.421875 -4.660156 14.421875 -3.882812 L 14.421875 -1.441406 C 14.421875 -0.664062 15.085938 0 15.863281 0 L 51.585938 0 C 52.363281 0 53.03125 -0.664062 53.03125 -1.441406 L 53.03125 -9.097656 C 53.03125 -9.875 52.363281 -10.539062 51.585938 -10.539062 L 15.863281 -10.539062 C 15.085938 -10.539062 14.421875 -11.203125 14.421875 -11.980469 L 14.421875 -19.636719 C 14.421875 -20.414062 15.085938 -21.078125 15.863281 -21.078125 Z M 51.585938 -21.078125 "/></g></g></g></g></g></svg>