<svg xmlns="http://www.w3.org/2000/svg" xmlns:xlink="http://www.w3.org/1999/xlink" width="2955" zoomAndPan="magnify" viewBox="0 0 2216.25 959.999988" height="1280" preserveAspectRatio="xMidYMid meet" version="1.0"><defs><g/><clipPath id="746eadb60a"><path d="M 0 0.164062 L 2215.5 0.164062 L 2215.5 959.835938 L 0 959.835938 Z M 0 0.164062 " clip-rule="nonzero"/></clipPath><clipPath id="78da1350e3"><path d="M 242.351562 235.867188 L 286.640625 235.867188 L 286.640625 608.359375 L 242.351562 608.359375 Z M 242.351562 235.867188 " clip-rule="nonzero"/></clipPath><clipPath id="4ae288f9ce"><path d="M 0.351562 0.867188 L 44.640625 0.867188 L 44.640625 373.359375 L 0.351562 373.359375 Z M 0.351562 0.867188 " clip-rule="nonzero"/></clipPath><clipPath id="58addf99c5"><rect x="0" width="45" y="0" height="374"/></clipPath><clipPath id="3a24230e15"><path d="M 638 594 L 1661 594 L 1661 959.835938 L 638 959.835938 Z M 638 594 " clip-rule="nonzero"/></clipPath><clipPath id="fd1377cf07"><path d="M 1311.632812 1701.121094 L 416.800781 1134.035156 L 903.617188 365.859375 L 1798.449219 932.941406 Z M 1311.632812 1701.121094 " clip-rule="nonzero"/></clipPath><clipPath id="32be2d427f"><path d="M 1311.632812 1701.121094 L 416.800781 1134.035156 L 903.617188 365.859375 L 1798.449219 932.941406 Z M 1311.632812 1701.121094 " clip-rule="nonzero"/></clipPath></defs><g clip-path="url(#746eadb60a)"><path fill="#ffffff" d="M 0 0.164062 L 2215.5 0.164062 L 2215.5 959.835938 L 0 959.835938 Z M 0 0.164062 " fill-opacity="1" fill-rule="nonzero"/><path fill="#000000" d="M 0 0.164062 L 2215.5 0.164062 L 2215.5 959.835938 L 0 959.835938 Z M 0 0.164062 " fill-opacity="1" fill-rule="nonzero"/></g><g clip-path="url(#78da1350e3)"><g transform="matrix(1, 0, 0, 1, 242, 235)"><g clip-path="url(#58addf99c5)"><g clip-path="url(#4ae288f9ce)"><path fill="#85fc6a" d="M 0.351562 0.867188 L 44.640625 0.867188 L 44.640625 373.34375 L 0.351562 373.34375 Z M 0.351562 0.867188 " fill-opacity="1" fill-rule="nonzero"/></g></g></g></g><g fill="#85fc6a" fill-opacity="1"><g transform="translate(352.139176, 552.675357)"><g><path d="M 50.171875 -193.78125 L 50.171875 -148.796875 C 56.710938 -156.679688 67.671875 -160.816406 83.046875 -161.203125 C 106.691406 -161.972656 122.742188 -158.5625 131.203125 -150.96875 C 139.671875 -143.375 144.191406 -130.347656 144.765625 -111.890625 C 144.191406 -90.359375 139.863281 -75.601562 131.78125 -67.625 C 123.707031 -59.644531 107.847656 -55.65625 84.203125 -55.65625 C 67.859375 -56.613281 56.515625 -61.707031 50.171875 -70.9375 L 50.171875 -55.375 L 7.5 -55.375 L 7.5 -193.78125 Z M 77.28125 -79.59375 C 93.8125 -78.820312 101.890625 -89.585938 101.515625 -111.890625 C 101.128906 -128.804688 92.664062 -137.265625 76.125 -137.265625 C 59.59375 -137.648438 50.941406 -129.09375 50.171875 -111.59375 C 51.140625 -90.644531 60.175781 -79.976562 77.28125 -79.59375 Z M 77.28125 -79.59375 "/></g></g></g><g fill="#85fc6a" fill-opacity="1"><g transform="translate(484.214498, 552.675357)"><g><path d="M 13.546875 -9.234375 L 13.546875 -29.703125 L 37.484375 -29.703125 C 48.054688 -29.703125 55.554688 -35.953125 59.984375 -48.453125 L 6.625 -159.1875 L 53.34375 -159.1875 L 83.921875 -93.140625 L 116.21875 -159.1875 L 162.9375 -159.1875 L 96.3125 -29.421875 C 89.96875 -16.148438 77.859375 -9.421875 59.984375 -9.234375 Z M 13.546875 -9.234375 "/></g></g></g><g fill="#85fc6a" fill-opacity="1"><g transform="translate(653.778459, 552.675357)"><g><path d="M 122.265625 -55.375 L 87.375 -55.375 C 72 -55.375 59.695312 -58.160156 50.46875 -63.734375 C 37.96875 -71.421875 31.71875 -84.585938 31.71875 -103.234375 L 31.71875 -136.40625 L 6.625 -136.40625 L 6.625 -156.59375 L 31.71875 -156.59375 L 31.71875 -184.5625 L 74.40625 -184.5625 L 74.40625 -156.59375 L 131.78125 -156.59375 C 131.78125 -143.132812 126.207031 -136.40625 115.0625 -136.40625 L 74.40625 -136.40625 L 74.40625 -103.53125 C 73.632812 -84.5 85.457031 -75.269531 109.875 -75.84375 L 138.125 -75.84375 C 139.28125 -62.382812 133.992188 -55.5625 122.265625 -55.375 Z M 122.265625 -55.375 "/></g></g></g><g fill="#85fc6a" fill-opacity="1"><g transform="translate(791.332873, 552.675357)"><g><path d="M 117.375 -155.4375 C 136.59375 -147.164062 146.300781 -134.570312 146.5 -117.65625 C 146.882812 -106.125 140.25 -100.359375 126.59375 -100.359375 L 50.171875 -100.359375 C 50.171875 -81.128906 59.59375 -71.515625 78.4375 -71.515625 C 95.351562 -71.515625 103.8125 -78.4375 103.8125 -92.28125 L 147.078125 -92.28125 C 147.078125 -82.09375 141.546875 -72.769531 130.484375 -64.3125 C 119.429688 -55.851562 101.648438 -51.625 77.140625 -51.625 C 52.628906 -51.625 36.238281 -54.890625 27.96875 -61.421875 C 14.320312 -71.804688 7.5 -85.742188 7.5 -103.234375 C 7.5 -127.265625 17.207031 -143.894531 36.625 -153.125 C 49.695312 -158.507812 63.15625 -161.203125 77 -161.203125 C 90.84375 -161.203125 104.300781 -159.28125 117.375 -155.4375 Z M 78.4375 -138.421875 C 65.363281 -138.421875 56.804688 -132.554688 52.765625 -120.828125 L 101.21875 -120.828125 C 97.375 -132.554688 89.78125 -138.421875 78.4375 -138.421875 Z M 78.4375 -138.421875 "/></g></g></g><g fill="#85fc6a" fill-opacity="1"><g transform="translate(945.901407, 552.675357)"><g><path d="M 128.328125 -134.671875 L 128.328125 -114.484375 L 6.625 -114.484375 L 6.625 -134.671875 Z M 128.328125 -134.671875 "/></g></g></g><g fill="#85fc6a" fill-opacity="1"><g transform="translate(1080.860447, 552.675357)"><g><path d="M 125.4375 -155.4375 C 138.507812 -148.707031 144.953125 -138.421875 144.765625 -124.578125 L 101.515625 -124.578125 C 101.128906 -135.347656 93.4375 -140.734375 78.4375 -140.734375 C 62.09375 -140.734375 53.828125 -137.847656 53.640625 -132.078125 C 53.828125 -124.773438 62.09375 -121.125 78.4375 -121.125 C 101.695312 -122.269531 118.90625 -119.863281 130.0625 -113.90625 C 142.164062 -107.945312 148.21875 -99.007812 148.21875 -87.09375 C 148.21875 -76.320312 144.472656 -67.957031 136.984375 -62 C 128.523438 -55.082031 109.679688 -51.625 80.453125 -51.625 C 51.234375 -51.625 32.78125 -54.3125 25.09375 -59.6875 C 14.132812 -67.382812 8.269531 -78.34375 7.5 -92.5625 L 50.171875 -92.5625 C 50.171875 -80.457031 58.441406 -74.40625 74.984375 -74.40625 C 94.398438 -73.632812 104.394531 -78.148438 104.96875 -87.953125 C 104.394531 -95.253906 94.398438 -98.617188 74.984375 -98.046875 C 51.328125 -97.859375 35.847656 -99.492188 28.546875 -102.953125 C 16.816406 -109.097656 10.953125 -118.898438 10.953125 -132.359375 C 10.953125 -142.554688 17.203125 -150.25 29.703125 -155.4375 C 42.773438 -160.820312 59.691406 -163.515625 80.453125 -163.515625 C 101.210938 -163.515625 116.207031 -160.820312 125.4375 -155.4375 Z M 125.4375 -155.4375 "/></g></g></g><g fill="#85fc6a" fill-opacity="1"><g transform="translate(1236.582481, 552.675357)"><g><path d="M 50.171875 -8.9375 L 7.5 -8.9375 L 7.5 -159.1875 L 50.171875 -159.1875 L 50.171875 -145.34375 C 56.515625 -154.570312 67.859375 -159.664062 84.203125 -160.625 C 107.847656 -160.625 123.707031 -156.632812 131.78125 -148.65625 C 139.863281 -140.675781 144.191406 -125.921875 144.765625 -104.390625 C 144.191406 -85.929688 139.671875 -72.90625 131.203125 -65.3125 C 122.742188 -57.71875 106.691406 -54.304688 83.046875 -55.078125 C 67.671875 -55.460938 56.710938 -59.597656 50.171875 -67.484375 Z M 77.28125 -136.6875 C 60.175781 -136.300781 51.140625 -125.632812 50.171875 -104.6875 C 50.941406 -87.1875 59.59375 -78.628906 76.125 -79.015625 C 92.664062 -79.015625 101.128906 -87.472656 101.515625 -104.390625 C 101.890625 -126.691406 93.8125 -137.457031 77.28125 -136.6875 Z M 77.28125 -136.6875 "/></g></g></g><g fill="#85fc6a" fill-opacity="1"><g transform="translate(1388.55555, 552.675357)"><g><path d="M 31.4375 -154.28125 C 42.195312 -158.125 56.226562 -160.046875 73.53125 -160.046875 C 90.832031 -160.046875 104.867188 -158.507812 115.640625 -155.4375 C 132.742188 -148.507812 141.296875 -136.109375 141.296875 -118.234375 C 141.109375 -88.242188 143.414062 -67.289062 148.21875 -55.375 L 105.546875 -55.375 C 104.390625 -58.0625 103.332031 -61.425781 102.375 -65.46875 C 88.726562 -58.15625 73.828125 -54.691406 57.671875 -55.078125 C 42.484375 -55.078125 30.660156 -57.382812 22.203125 -62 C 12.972656 -67.1875 8.070312 -76.316406 7.5 -89.390625 C 8.269531 -101.316406 13.554688 -109.875 23.359375 -115.0625 C 32.585938 -118.90625 50.175781 -120.828125 76.125 -120.828125 C 81.707031 -120.828125 89.015625 -121.597656 98.046875 -123.140625 C 95.742188 -132.554688 88.054688 -137.265625 74.984375 -137.265625 C 59.984375 -137.265625 52.289062 -133.035156 51.90625 -124.578125 L 8.65625 -124.578125 C 9.226562 -137.648438 16.820312 -147.550781 31.4375 -154.28125 Z M 76.125 -98.046875 C 59.789062 -98.046875 51.332031 -95.066406 50.75 -89.109375 C 51.332031 -81.609375 55.179688 -77.859375 62.296875 -77.859375 C 76.710938 -77.472656 89.109375 -81.414062 99.484375 -89.6875 C 99.296875 -92.957031 99.101562 -96.320312 98.90625 -99.78125 C 90.644531 -98.4375 83.050781 -97.859375 76.125 -98.046875 Z M 76.125 -98.046875 "/></g></g></g><g fill="#85fc6a" fill-opacity="1"><g transform="translate(1544.277628, 552.675357)"><g><path d="M 117.375 -155.4375 C 136.59375 -147.164062 146.492188 -132.265625 147.078125 -110.734375 L 103.8125 -110.734375 C 103.425781 -129.191406 94.96875 -138.421875 78.4375 -138.421875 C 59.59375 -138.421875 50.171875 -126.984375 50.171875 -104.109375 C 50.171875 -82.378906 59.59375 -71.515625 78.4375 -71.515625 C 95.351562 -71.515625 103.8125 -80.742188 103.8125 -99.203125 L 147.078125 -99.203125 C 147.078125 -84.398438 141.546875 -72.769531 130.484375 -64.3125 C 119.429688 -55.851562 101.648438 -51.625 77.140625 -51.625 C 52.628906 -51.625 36.238281 -54.890625 27.96875 -61.421875 C 14.320312 -71.804688 7.5 -85.742188 7.5 -103.234375 C 7.5 -127.265625 17.207031 -143.894531 36.625 -153.125 C 49.695312 -158.507812 63.15625 -161.203125 77 -161.203125 C 90.84375 -161.203125 104.300781 -159.28125 117.375 -155.4375 Z M 117.375 -155.4375 "/></g></g></g><g fill="#85fc6a" fill-opacity="1"><g transform="translate(1698.846072, 552.675357)"><g><path d="M 117.375 -155.4375 C 136.59375 -147.164062 146.300781 -134.570312 146.5 -117.65625 C 146.882812 -106.125 140.25 -100.359375 126.59375 -100.359375 L 50.171875 -100.359375 C 50.171875 -81.128906 59.59375 -71.515625 78.4375 -71.515625 C 95.351562 -71.515625 103.8125 -78.4375 103.8125 -92.28125 L 147.078125 -92.28125 C 147.078125 -82.09375 141.546875 -72.769531 130.484375 -64.3125 C 119.429688 -55.851562 101.648438 -51.625 77.140625 -51.625 C 52.628906 -51.625 36.238281 -54.890625 27.96875 -61.421875 C 14.320312 -71.804688 7.5 -85.742188 7.5 -103.234375 C 7.5 -127.265625 17.207031 -143.894531 36.625 -153.125 C 49.695312 -158.507812 63.15625 -161.203125 77 -161.203125 C 90.84375 -161.203125 104.300781 -159.28125 117.375 -155.4375 Z M 78.4375 -138.421875 C 65.363281 -138.421875 56.804688 -132.554688 52.765625 -120.828125 L 101.21875 -120.828125 C 97.375 -132.554688 89.78125 -138.421875 78.4375 -138.421875 Z M 78.4375 -138.421875 "/></g></g></g><g clip-path="url(#3a24230e15)"><g clip-path="url(#fd1377cf07)"><g clip-path="url(#32be2d427f)"><path stroke-linecap="butt" transform="matrix(-0.298215, -0.188988, 0.188988, -0.298215, 1311.656684, 1701.082773)" fill-opacity="1" fill="#85fc6a" fill-rule="nonzero" stroke-linejoin="miter" d="M 1541.677668 44.671097 C 1611.026987 -18.218567 1728.592442 -14.07845 1793.270674 53.587248 C 1850.066361 109.992785 1861.11744 204.0726 1822.330216 273.477281 C 1806.388056 303.280883 1781.352275 327.333576 1752.476898 344.480116 C 1823.715733 476.258959 1892.246495 609.531313 1963.085322 741.485061 C 1994.789867 727.955382 2031.853424 729.682181 2062.298011 745.912364 C 2114.425321 771.285081 2136.179997 840.688769 2113.219784 892.819756 C 2092.21077 944.329848 2029.144487 972.756911 1976.383216 956.470441 C 1957.222024 951.637479 1940.762726 940.009919 1927.065503 926.14729 C 1853.293733 987.949265 1782.282176 1053.031934 1708.105556 1114.422437 C 1683.643303 1134.915567 1659.823724 1156.154106 1636.290543 1177.617207 C 1668.44871 1227.617275 1689.512706 1285.224413 1696.766035 1344.209196 C 1838.896368 1326.075208 1981.379187 1310.481679 2123.919385 1295.061368 C 2297.534878 1273.138132 2471.888874 1256.968802 2645.336084 1233.829236 C 2646.720914 1176.404223 2671.975465 1118.509745 2719.335027 1084.39659 C 2784.819587 1035.705744 2883.797222 1039.679465 2943.701707 1095.843897 C 3013.503636 1157.642793 3019.490761 1275.955326 2955.843177 1344.204281 C 2902.677756 1406.753473 2804.272446 1420.218284 2734.238719 1379.301643 C 2713.637349 1368.661697 2697.466311 1351.742936 2682.56137 1334.362378 C 2525.060944 1430.638668 2367.455106 1526.562601 2210.581544 1623.869394 C 2229.395425 1671.807841 2209.084731 1732.398194 2161.151794 1754.155807 C 2189.748954 1857.73359 2220.600174 1960.734324 2250.005503 2064.140513 C 2309.674829 2054.763626 2366.359117 2109.484524 2360.83505 2169.100442 C 2357.953507 2216.929457 2315.723058 2257.668608 2267.898041 2258.989237 C 2227.446707 2261.465885 2188.607753 2235.400195 2173.580628 2198.108341 C 1978.966321 2254.794974 1785.153306 2314.52357 1591.173044 2373.388847 C 1604.468171 2428.34827 1585.990292 2489.453755 1545.535103 2528.818991 C 1497.204523 2576.633185 1418.36288 2590.274709 1357.252471 2559.945561 C 1320.079962 2542.110823 1289.286051 2510.344194 1274.620567 2471.618069 C 1251.080413 2410.393036 1267.657843 2335.520028 1315.595117 2290.640332 C 1220.642418 2184.814085 1125.809905 2078.702093 1035.060221 1969.256053 C 995.818907 1999.809372 934.297116 1996.52792 900.862506 1958.837496 C 883.776135 1939.957648 876.871229 1914.180128 877.329626 1889.211539 C 727.369703 1864.234888 576.944863 1842.369104 426.691059 1819.347028 C 418.642495 1819.234344 409.836419 1814.453901 402.352534 1819.118081 C 391.657774 1884.77467 347.572437 1944.909715 286.115853 1971.556932 C 197.733563 2013.735256 81.894687 1979.434775 31.02761 1895.655004 C -25.599534 1809.565627 -2.354622 1682.565014 82.519873 1623.524777 C 162.682858 1563.684826 285.254758 1576.965049 351.941349 1651.086263 C 433.542413 1563.338384 515.548598 1475.85772 596.74139 1387.713638 C 551.97107 1339.824937 577.173819 1249.831999 640.873403 1233.028267 C 698.423704 1211.502537 767.766934 1257.716412 768.052161 1319.636937 C 818.176458 1326.657065 868.348294 1333.214806 918.537627 1339.944842 C 926.526854 1295.69029 937.747676 1251.326393 959.619392 1211.73961 C 834.802424 1151.717969 706.189712 1099.86527 580.692977 1041.23063 C 569.52118 1058.553788 555.24829 1074.724699 535.682239 1082.605242 C 496.321849 1101.995276 444.884136 1088.996139 418.408109 1054.349045 C 392.228208 1020.169225 391.995873 968.956174 418.351418 934.832471 C 438.146132 908.19366 471.926632 894.487976 504.728538 898.522554 C 529.987954 778.772588 555.600381 659.021587 581.088817 539.322965 C 552.090395 530.232048 526.600219 511.07168 510.886118 484.890684 C 484.698763 442.018003 486.191822 383.89566 514.909829 342.524429 C 534.703921 312.59822 568.025519 292.463687 603.592714 288.026144 C 655.266079 279.446348 710.739329 307.990543 733.409376 355.358341 C 748.829055 383.782429 750.553445 417.217994 744.570802 448.516806 C 859.264407 496.222694 975.324554 540.586894 1089.78371 588.873619 C 1117.864548 534.322754 1199.583804 521.542844 1242.742099 565.213627 C 1336.479749 478.262419 1435.915281 397.367178 1530.061203 310.812174 C 1455.709246 240.841409 1464.691274 109.296205 1541.677668 44.671097 M 1258.733489 586.974893 C 1270.643529 606.30581 1275.652145 629.669807 1270.529713 652.05336 C 1346.033775 677.832271 1423.141915 698.494711 1498.980345 723.35439 C 1534.210007 601.1894 1570.6873 479.360242 1605.208711 357.028451 C 1585.589097 351.844166 1566.891676 343.154432 1551.520195 329.75029 C 1453.120198 414.57385 1355.124127 499.848763 1258.733489 586.974893 M 1632.028903 363.819026 C 1595.891041 486.101114 1560.667412 608.668341 1524.993513 731.062463 C 1647.225355 769.105291 1769.855024 805.8743 1891.500665 845.637796 C 1895.530227 810.533685 1909.969944 775.093547 1939.890581 754.42906 C 1867.962074 622.078678 1799.36844 487.942352 1728.066734 355.299538 C 1697.336984 366.233544 1664.138654 369.510431 1632.028903 363.819026 M 702.217916 515.622786 C 761.148412 602.45305 820.073909 689.234088 879.806541 775.49052 C 946.153262 739.011501 1015.145075 707.471084 1081.788575 671.563715 C 1076.953323 653.041188 1075.631765 633.758986 1079.882807 614.940377 C 965.377688 567.180534 849.363998 522.930979 735.079635 474.651371 C 727.142793 490.526981 715.519992 503.996743 702.217916 515.622786 M 607.795222 544.797181 C 582.236369 664.488033 557.611363 784.4123 531.948133 904.103805 C 547.658612 910.953307 561.806455 920.73172 573.211788 933.623518 C 665.456482 882.120611 760.976286 836.715798 854.539044 787.809471 C 795.615841 702.52024 737.840555 616.438044 679.02765 531.157506 C 657.228427 542.955146 632.358979 547.097084 607.795222 544.797181 M 1261.094955 679.331067 C 1251.489015 702.866218 1231.751771 720.129183 1208.274244 729.11318 C 1223.349692 820.262763 1239.972638 911.125883 1254.189113 1002.387564 C 1308.057966 993.241641 1362.835247 1000.142362 1415.661362 1012.169933 C 1439.142919 924.132287 1468.256254 837.581733 1490.764081 749.30975 C 1414.333957 725.479986 1337.579193 702.812167 1261.094955 679.331067 M 894.999713 798.451877 C 957.264686 888.683563 1019.75645 978.797721 1081.096872 1069.720113 C 1124.081872 1037.488538 1175.475377 1016.602968 1228.180327 1006.819276 C 1210.743131 916.655555 1198.200484 825.616796 1181.570534 735.321363 C 1149.001058 736.75886 1116.48776 723.175759 1096.86212 696.775281 C 1029.134463 729.793749 962.095777 764.209422 894.999713 798.451877 M 1439.430309 1021.09066 C 1510.492321 1048.086587 1575.11546 1094.00394 1621.330737 1154.652044 C 1717.251093 1072.591899 1811.565362 988.57616 1908.413596 907.670127 C 1901.85572 895.937247 1902.77953 876.188294 1887.47457 872.107619 C 1764.438252 834.076858 1641.639694 795.0571 1518.378926 757.705631 C 1490.990717 845.18013 1466.4742 933.506897 1439.430309 1021.09066 M 587.420262 957.222008 C 592.721053 975.921064 595.303933 995.478027 590.874785 1014.697679 C 717.06815 1074.266215 846.425794 1127.087692 972.33456 1187.281946 C 996.224375 1148.957392 1024.415917 1112.294789 1060.672663 1084.968959 C 995.759702 994.961423 932.919209 903.470215 871.052494 811.283301 C 776.16777 859.219768 681.048645 906.80703 587.420262 957.222008 M 2517.817132 1277.913035 C 2372.742445 1292.765135 2228.140718 1311.980669 2083.118522 1327.349652 C 1955.028402 1341.615846 1827.048039 1356.179248 1699.067248 1371.424059 C 1701.195103 1409.175408 1697.396265 1447.041229 1689.055983 1483.920968 C 1803.86307 1528.581517 1919.687605 1570.527672 2033.980643 1616.444003 C 2065.631773 1558.556433 2153.665396 1552.515905 2195.848482 1601.716748 C 2351.802317 1503.43406 2509.704393 1408.370294 2666.738627 1311.813097 C 2658.101451 1296.158426 2652.121003 1279.239263 2649.357965 1261.630301 C 2605.565358 1267.494999 2561.664459 1272.734092 2517.817132 1277.913035 M 728.461868 1402.780309 C 756.946337 1455.147811 783.995295 1508.267857 811.96234 1560.976366 C 852.698348 1546.071958 893.785744 1532.032062 935.277018 1519.373563 C 917.958145 1470.631771 913.064068 1418.325491 916.752506 1366.933107 C 866.277921 1360.724413 815.988606 1353.009837 765.409215 1347.483204 C 759.827166 1369.699573 747.561583 1389.720011 728.461868 1402.780309 M 369.092949 1673.644824 C 377.61083 1685.039403 385.154933 1697.129688 391.193761 1710.069122 C 521.993231 1661.50928 654.114794 1616.565169 785.604 1569.899801 C 757.183008 1519.43069 732.141116 1467.121409 703.657205 1416.718369 C 674.886536 1427.353956 642.840262 1423.560943 616.938742 1407.451295 C 535.628981 1497.333048 451.324555 1584.514944 369.092949 1673.644824 M 1680.476933 1510.564694 C 1667.137027 1556.834769 1645.031055 1600.971194 1614.643484 1638.488441 C 1714.661521 1716.177659 1813.064971 1795.990389 1912.672189 1874.188833 C 1956.008824 1825.046578 2001.348785 1777.804657 2045.084348 1729.064529 C 2023.624016 1705.411703 2018.497966 1672.271851 2024.302615 1641.766976 C 1910.029908 1597.22623 1795.168117 1554.132904 1680.476933 1510.564694 M 825.140375 1586.524656 C 864.72388 1657.191378 900.404285 1729.925555 939.647929 1800.820756 C 968.8241 1790.701018 1002.080113 1791.959048 1027.748394 1810.718372 C 1049.845185 1781.428674 1068.432658 1749.660482 1090.932723 1720.717761 C 1025.217437 1678.885118 975.278055 1615.357586 944.718467 1544.172338 C 904.721181 1557.927458 864.498728 1570.934557 825.140375 1586.524656 M 398.270803 1736.366296 C 402.298204 1753.986116 404.885907 1771.876478 405.865964 1789.999729 C 564.750187 1811.468971 723.280557 1836.555043 881.53225 1862.276178 C 888.144993 1843.401751 899.080653 1826.202042 915.656435 1814.636449 C 875.720937 1742.070795 838.829026 1667.838299 799.293537 1595.097739 C 664.993871 1640.38738 532.002606 1689.353823 398.270803 1736.366296 M 1374.054931 1781.080477 C 1391.382856 1936.28336 1408.809235 2091.476246 1425.963942 2246.736508 C 1466.182451 2243.975148 1506.639395 2257.960102 1537.715037 2283.391766 C 1654.985971 2152.303416 1776.926385 2025.420898 1893.860117 1894.048489 C 1793.901687 1816.70136 1696.427134 1736.142774 1595.77198 1659.721835 C 1538.34376 1723.832903 1457.61055 1763.757323 1374.054931 1781.080477 M 1049.04399 1828.096492 C 1078.559258 1861.131895 1081.730454 1914.93608 1054.740022 1950.496935 C 1147.044814 2060.123245 1244.749384 2165.083162 1336.601246 2275.048903 C 1354.717886 2261.76019 1375.551659 2252.5523 1398.050237 2250.187931 C 1383.438107 2094.351162 1364.215484 1939.052229 1348.337797 1783.388742 C 1266.848991 1791.385642 1183.007152 1774.00815 1111.596486 1733.833131 C 1090.877797 1765.380089 1070.568573 1797.139111 1049.04399 1828.096492 M 1935.061207 1890.874017 C 2020.166378 1959.479223 2109.587839 2022.88649 2192.803058 2093.84211 C 2202.406392 2085.267409 2212.997754 2077.900393 2224.27928 2071.746442 C 2192.515626 1969.310847 2163.114102 1866.138025 2135.828956 1762.501605 C 2111.608692 1766.179739 2086.173354 1763.475974 2065.971801 1748.692316 C 2020.574397 1794.438084 1979.368436 1844.090089 1935.061207 1890.874017 M 1691.531579 2156.912716 C 1645.4944 2204.439301 1603.141939 2255.485916 1556.182263 2302.156252 C 1567.520985 2315.273647 1575.86861 2330.574766 1582.191577 2346.752912 C 1777.093731 2287.709466 1972.350536 2230.052414 2167.135163 2170.782177 C 2165.298298 2151.61696 2168.404511 2132.397371 2178.820087 2116.051207 C 2091.812067 2047.171735 2003.3053 1980.185178 1915.951879 1911.773475 C 1841.78275 1994.051774 1766.510677 2075.313103 1691.531579 2156.912716 Z M 1691.531579 2156.912716 " stroke="#010201" stroke-width="0.094" stroke-opacity="1" stroke-miterlimit="4"/></g></g></g></svg>